{"scene":0,"scenes":[{"nodes":[0]}],"asset":{"version":"2.0","generator":"https://github.com/mikedh/trimesh"},"accessors":[{"componentType":5125,"type":"SCALAR","bufferView":0,"count":58806,"max":[9999],"min":[0]},{"componentType":5126,"type":"VEC3","byteOffset":0,"bufferView":1,"count":10000,"max":[99.0,99.0,10.0],"min":[0.0,0.0,0.0]}],"meshes":[{"name":"geometry_0","extras":{"processed":true},"primitives":[{"attributes":{"POSITION":1},"indices":0,"mode":4}]}],"nodes":[{"name":"world","children":[1]},{"name":"geometry_0","mesh":0}],"buffers":[{"uri":"gltf_buffer_0.bin","byteLength":235224},{"uri":"gltf_buffer_1.bin","byteLength":120000}],"bufferViews":[{"buffer":0,"byteOffset":0,"byteLength":235224},{"buffer":1,"byteOffset":0,"byteLength":120000}]}